<svg xmlns="http://www.w3.org/2000/svg" xmlns:xlink="http://www.w3.org/1999/xlink" width="500" height="500" viewBox="131 131 113 113" preserveAspectRatio="xMidYMid meet" version="1.0">
  <defs><clipPath id="63670d3c62"><path d="M 131.25 131.25 L 243.75 131.25 L 243.75 243.75 L 131.25 243.75 Z M 131.25 131.25 " clip-rule="nonzero"/></clipPath><clipPath id="fb378c1d55"><path d="M 187.5 131.25 C 156.433594 131.25 131.25 156.433594 131.25 187.5 C 131.25 218.566406 156.433594 243.75 187.5 243.75 C 218.566406 243.75 243.75 218.566406 243.75 187.5 C 243.75 156.433594 218.566406 131.25 187.5 131.25 Z M 187.5 131.25 " clip-rule="nonzero"/></clipPath><clipPath id="89deebad6f"><path d="M 163.28125 156 L 182 156 L 182 167 L 163.28125 167 Z M 163.28125 156 " clip-rule="nonzero"/></clipPath><clipPath id="54f8f7bb25"><path d="M 165 202 L 219 202 L 219 222.515625 L 165 222.515625 Z M 165 202 " clip-rule="nonzero"/></clipPath></defs><g clip-path="url(#63670d3c62)"><g clip-path="url(#fb378c1d55)"><path fill="#e6d1a2" d="M 131.25 131.25 L 243.75 131.25 L 243.75 243.75 L 131.25 243.75 Z M 131.25 131.25 " fill-opacity="1" fill-rule="nonzero"/></g></g><path fill="#000000" d="M 172.636719 173.339844 C 172.203125 175.5 172.492188 177.914062 172.492188 180.132812 C 172.523438 182.460938 172.609375 184.734375 172.808594 187.039062 C 173.011719 189.253906 176.785156 189.570312 177.246094 187.355469 C 177.792969 184.851562 178.054688 182.519531 177.996094 179.988281 C 177.910156 177.511719 177.824219 174.835938 176.871094 172.535156 C 176.496094 171.644531 175.34375 171.152344 174.453125 171.328125 C 173.414062 171.527344 172.839844 172.363281 172.636719 173.339844 Z M 172.636719 173.339844 " fill-opacity="1" fill-rule="nonzero"/><path fill="#000000" d="M 203.953125 172.59375 C 203.089844 174.320312 203.433594 176.878906 203.519531 178.777344 C 203.609375 180.996094 203.867188 183.039062 204.441406 185.167969 C 205.222656 188.074219 208.910156 187.640625 209.484375 184.878906 C 209.976562 182.578125 210.003906 180.476562 209.746094 178.144531 C 209.511719 176.046875 209.3125 173.542969 207.957031 171.816406 C 206.746094 170.289062 204.671875 171.125 203.953125 172.59375 Z M 203.953125 172.59375 " fill-opacity="1" fill-rule="nonzero"/><path fill="#000000" d="M 172.925781 173.339844 C 172.492188 175.5 172.78125 177.914062 172.78125 180.132812 C 172.808594 182.460938 172.894531 184.734375 173.097656 187.039062 C 173.300781 189.253906 177.074219 189.570312 177.535156 187.355469 C 178.082031 184.851562 178.339844 182.519531 178.285156 179.988281 C 178.195312 177.511719 178.109375 174.835938 177.160156 172.535156 C 176.785156 171.644531 175.632812 171.152344 174.738281 171.328125 C 173.703125 171.527344 173.125 172.363281 172.925781 173.339844 Z M 172.925781 173.339844 " fill-opacity="1" fill-rule="nonzero"/><path fill="#000000" d="M 204.242188 172.59375 C 203.378906 174.320312 203.722656 176.878906 203.808594 178.777344 C 203.894531 180.996094 204.15625 183.039062 204.730469 185.167969 C 205.507812 188.074219 209.195312 187.640625 209.773438 184.878906 C 210.261719 182.578125 210.292969 180.476562 210.03125 178.144531 C 209.800781 176.046875 209.601562 173.542969 208.246094 171.816406 C 207.035156 170.289062 204.960938 171.125 204.242188 172.59375 Z M 204.242188 172.59375 " fill-opacity="1" fill-rule="nonzero"/><path fill="#000000" d="M 198.132812 168.246094 C 199.601562 168.851562 201.074219 167.558594 202.253906 166.808594 C 203.839844 165.773438 205.363281 164.679688 206.890625 163.558594 C 209.886719 161.3125 212.769531 158.925781 215.417969 156.304688 C 216.570312 155.15625 215.246094 152.765625 213.71875 153.773438 C 210.578125 155.875 207.554688 158.148438 204.558594 160.476562 C 203.117188 161.601562 201.707031 162.722656 200.324219 163.902344 C 199.140625 164.910156 197.472656 165.917969 197.613281 167.644531 C 197.644531 167.929688 197.902344 168.160156 198.132812 168.246094 Z M 198.132812 168.246094 " fill-opacity="1" fill-rule="nonzero"/><g clip-path="url(#89deebad6f)"><path fill="#000000" d="M 164.050781 158.03125 C 164.972656 158.867188 166.125 159.269531 167.25 159.789062 C 168.605469 160.421875 169.957031 161.082031 171.3125 161.714844 C 173.960938 163.011719 176.527344 164.421875 179.0625 165.917969 C 180.90625 166.980469 182.777344 164.21875 180.933594 163.15625 C 178.371094 161.6875 175.75 160.390625 173.039062 159.210938 C 171.742188 158.664062 170.449219 158.148438 169.121094 157.6875 C 167.769531 157.226562 166.269531 156.480469 164.828125 156.566406 C 164.109375 156.566406 163.390625 157.429688 164.050781 158.03125 Z M 164.050781 158.03125 " fill-opacity="1" fill-rule="nonzero"/></g><g clip-path="url(#54f8f7bb25)"><path fill="#000000" d="M 166.816406 221.914062 C 170.707031 218.863281 174.308594 215.4375 178.515625 212.789062 C 182.578125 210.230469 187.042969 208.15625 191.765625 207.207031 C 200.121094 205.570312 209.398438 207.324219 215.535156 213.539062 C 217.03125 215.0625 219.425781 213.019531 218.070312 211.324219 C 213.257812 205.339844 205.59375 202.664062 198.074219 202.691406 C 189.894531 202.75 182.347656 206.113281 175.804688 210.835938 C 171.945312 213.625 168.316406 216.847656 165.433594 220.675781 C 164.773438 221.566406 166.011719 222.515625 166.816406 221.914062 Z M 166.816406 221.914062 " fill-opacity="1" fill-rule="nonzero"/></g></svg>