<svg xmlns="http://www.w3.org/2000/svg" xmlns:xlink="http://www.w3.org/1999/xlink" width="500" height="500" viewBox="131 131 113 113" preserveAspectRatio="xMidYMid meet" version="1.0">
  <defs><clipPath id="72a56cc4d5"><path d="M 131.25 131.25 L 243.75 131.25 L 243.75 243.75 L 131.25 243.75 Z M 131.25 131.25 " clip-rule="nonzero"/></clipPath><clipPath id="4c45c58dde"><path d="M 187.5 131.25 C 156.433594 131.25 131.25 156.433594 131.25 187.5 C 131.25 218.566406 156.433594 243.75 187.5 243.75 C 218.566406 243.75 243.75 218.566406 243.75 187.5 C 243.75 156.433594 218.566406 131.25 187.5 131.25 Z M 187.5 131.25 " clip-rule="nonzero"/></clipPath><clipPath id="08d6fb8252"><path d="M 154.515625 185 L 220.515625 185 L 220.515625 216 L 154.515625 216 Z M 154.515625 185 " clip-rule="nonzero"/></clipPath></defs><g clip-path="url(#72a56cc4d5)"><g clip-path="url(#4c45c58dde)"><path fill="#e6d1a2" d="M 131.25 131.25 L 243.75 131.25 L 243.75 243.75 L 131.25 243.75 Z M 131.25 131.25 " fill-opacity="1" fill-rule="nonzero"/></g></g><path fill="#000000" d="M 174.652344 160.824219 C 174.328125 162.445312 174.542969 164.261719 174.542969 165.925781 C 174.566406 167.675781 174.628906 169.382812 174.78125 171.113281 C 174.933594 172.777344 177.777344 173.015625 178.121094 171.347656 C 178.535156 169.46875 178.730469 167.71875 178.6875 165.816406 C 178.621094 163.957031 178.558594 161.949219 177.839844 160.21875 C 177.558594 159.546875 176.691406 159.179688 176.019531 159.3125 C 175.238281 159.460938 174.804688 160.089844 174.652344 160.824219 Z M 174.652344 160.824219 " fill-opacity="1" fill-rule="nonzero"/><path fill="#000000" d="M 198.230469 160.261719 C 197.578125 161.558594 197.839844 163.480469 197.90625 164.910156 C 197.96875 166.574219 198.164062 168.109375 198.597656 169.707031 C 199.183594 171.890625 201.960938 171.566406 202.394531 169.492188 C 202.761719 167.761719 202.785156 166.183594 202.589844 164.433594 C 202.417969 162.855469 202.265625 160.976562 201.246094 159.679688 C 200.332031 158.53125 198.773438 159.160156 198.230469 160.261719 Z M 198.230469 160.261719 " fill-opacity="1" fill-rule="nonzero"/><g clip-path="url(#08d6fb8252)"><path fill="#000000" d="M 156.367188 215.484375 C 157.863281 213.363281 158.796875 210.835938 160.207031 208.632812 C 161.617188 206.40625 163.199219 204.246094 164.933594 202.257812 C 168.277344 198.453125 172.332031 195.1875 176.800781 192.8125 C 182.046875 190.023438 187.949219 188.359375 193.914062 189.289062 C 199.140625 190.109375 204.042969 192.898438 207.707031 196.660156 C 209.898438 198.90625 211.699219 201.457031 213.152344 204.246094 C 214.628906 207.097656 215.648438 210.101562 216.863281 213.0625 C 217.6875 215.074219 220.503906 213.820312 220.289062 211.894531 C 219.636719 205.824219 216.253906 199.792969 212.261719 195.273438 C 208.273438 190.738281 202.894531 187.214844 196.992188 185.765625 C 184.714844 182.738281 171.875 189.117188 163.675781 198.042969 C 161.464844 200.441406 159.46875 203.011719 157.929688 205.886719 C 156.453125 208.589844 154.71875 211.746094 154.566406 214.855469 C 154.523438 215.828125 155.804688 216.28125 156.367188 215.484375 Z M 156.367188 215.484375 " fill-opacity="1" fill-rule="nonzero"/></g></svg>