<svg xmlns="http://www.w3.org/2000/svg" xmlns:xlink="http://www.w3.org/1999/xlink" width="500" height="500" viewBox="131 131 113 113" preserveAspectRatio="xMidYMid meet" version="1.0">
  <defs><clipPath id="b151da52e4"><path d="M 131.25 131.25 L 243.75 131.25 L 243.75 243.75 L 131.25 243.75 Z M 131.25 131.25 " clip-rule="nonzero"/></clipPath><clipPath id="e89ef84cd7"><path d="M 187.5 131.25 C 156.433594 131.25 131.25 156.433594 131.25 187.5 C 131.25 218.566406 156.433594 243.75 187.5 243.75 C 218.566406 243.75 243.75 218.566406 243.75 187.5 C 243.75 156.433594 218.566406 131.25 187.5 131.25 Z M 187.5 131.25 " clip-rule="nonzero"/></clipPath><clipPath id="b578c863c2"><path d="M 159.773438 198.261719 L 230.273438 198.261719 L 230.273438 218.511719 L 159.773438 218.511719 Z M 159.773438 198.261719 " clip-rule="nonzero"/></clipPath></defs><g clip-path="url(#b151da52e4)"><g clip-path="url(#e89ef84cd7)"><path fill="#e6d1a2" d="M 131.25 131.25 L 243.75 131.25 L 243.75 243.75 L 131.25 243.75 Z M 131.25 131.25 " fill-opacity="1" fill-rule="nonzero"/></g></g><path fill="#000000" d="M 175.230469 172.171875 C 174.839844 174.109375 175.097656 176.28125 175.097656 178.273438 C 175.125 180.371094 175.203125 182.414062 175.386719 184.480469 C 175.566406 186.472656 178.976562 186.757812 179.390625 184.765625 C 179.886719 182.515625 180.121094 180.421875 180.066406 178.144531 C 179.988281 175.921875 179.910156 173.515625 179.054688 171.445312 C 178.714844 170.644531 177.675781 170.207031 176.867188 170.359375 C 175.929688 170.542969 175.410156 171.292969 175.230469 172.171875 Z M 175.230469 172.171875 " fill-opacity="1" fill-rule="nonzero"/><path fill="#000000" d="M 203.507812 171.5 C 202.726562 173.050781 203.039062 175.351562 203.117188 177.058594 C 203.195312 179.050781 203.429688 180.886719 203.949219 182.800781 C 204.652344 185.414062 207.984375 185.023438 208.503906 182.542969 C 208.945312 180.472656 208.972656 178.585938 208.738281 176.488281 C 208.527344 174.601562 208.347656 172.351562 207.125 170.800781 C 206.03125 169.429688 204.15625 170.179688 203.507812 171.5 Z M 203.507812 171.5 " fill-opacity="1" fill-rule="nonzero"/><g clip-path="url(#b578c863c2)"><path fill="#000000" d="M 195.027344 128.878906 C 160.683594 128.878906 132.777344 156.789062 132.777344 191.128906 C 132.777344 225.472656 160.683594 253.378906 195.027344 253.378906 C 229.367188 253.378906 257.277344 225.472656 257.277344 191.128906 C 257.277344 156.9375 229.597656 129.164062 195.460938 128.921875 C 195.316406 128.898438 195.171875 128.882812 195.027344 128.878906 Z M 195.027344 134.292969 C 226.441406 134.292969 251.863281 159.714844 251.863281 191.128906 C 251.863281 222.546875 226.441406 247.96875 195.027344 247.96875 C 163.609375 247.96875 138.191406 222.546875 138.191406 191.128906 C 138.191406 159.714844 163.609375 134.292969 195.027344 134.292969 Z M 173.375 172.183594 C 172.839844 172.183594 172.3125 172.238281 171.789062 172.339844 C 171.269531 172.445312 170.761719 172.597656 170.265625 172.804688 C 169.773438 173.007812 169.308594 173.257812 168.863281 173.554688 C 168.421875 173.847656 168.011719 174.1875 167.632812 174.5625 C 167.257812 174.941406 166.917969 175.351562 166.625 175.792969 C 166.328125 176.238281 166.078125 176.703125 165.871094 177.199219 C 165.667969 177.691406 165.515625 178.199219 165.410156 178.71875 C 165.308594 179.242188 165.253906 179.769531 165.253906 180.304688 C 165.253906 180.835938 165.308594 181.367188 165.410156 181.886719 C 165.515625 182.410156 165.667969 182.917969 165.871094 183.410156 C 166.078125 183.902344 166.328125 184.371094 166.625 184.816406 C 166.917969 185.257812 167.257812 185.667969 167.632812 186.046875 C 168.011719 186.421875 168.421875 186.757812 168.863281 187.054688 C 169.308594 187.351562 169.773438 187.601562 170.265625 187.804688 C 170.761719 188.011719 171.269531 188.164062 171.789062 188.269531 C 172.3125 188.371094 172.839844 188.425781 173.375 188.425781 C 173.90625 188.425781 174.4375 188.371094 174.957031 188.269531 C 175.480469 188.164062 175.988281 188.011719 176.480469 187.804688 C 176.972656 187.601562 177.441406 187.351562 177.886719 187.054688 C 178.328125 186.757812 178.738281 186.421875 179.117188 186.046875 C 179.492188 185.667969 179.828125 185.257812 180.125 184.816406 C 180.421875 184.371094 180.671875 183.902344 180.875 183.410156 C 181.078125 182.917969 181.234375 182.410156 181.339844 181.886719 C 181.441406 181.367188 181.492188 180.835938 181.492188 180.304688 C 181.492188 179.769531 181.441406 179.242188 181.339844 178.71875 C 181.234375 178.199219 181.078125 177.691406 180.875 177.195312 C 180.671875 176.703125 180.421875 176.238281 180.125 175.792969 C 179.828125 175.351562 179.492188 174.941406 179.117188 174.5625 C 178.738281 174.1875 178.328125 173.847656 177.886719 173.554688 C 177.441406 173.257812 176.972656 173.007812 176.480469 172.804688 C 175.988281 172.597656 175.480469 172.445312 174.957031 172.339844 C 174.4375 172.238281 173.90625 172.183594 173.375 172.183594 Z M 216.679688 172.183594 C 216.144531 172.183594 215.617188 172.238281 215.09375 172.339844 C 214.570312 172.445312 214.0625 172.597656 213.570312 172.804688 C 213.078125 173.007812 212.609375 173.257812 212.167969 173.554688 C 211.722656 173.847656 211.316406 174.1875 210.9375 174.5625 C 210.558594 174.941406 210.222656 175.351562 209.925781 175.792969 C 209.632812 176.238281 209.382812 176.703125 209.175781 177.199219 C 208.972656 177.691406 208.820312 178.199219 208.714844 178.71875 C 208.609375 179.242188 208.558594 179.769531 208.558594 180.304688 C 208.558594 180.835938 208.609375 181.367188 208.714844 181.886719 C 208.820312 182.410156 208.972656 182.917969 209.175781 183.410156 C 209.382812 183.902344 209.632812 184.371094 209.925781 184.816406 C 210.222656 185.257812 210.558594 185.667969 210.9375 186.046875 C 211.316406 186.421875 211.722656 186.757812 212.167969 187.054688 C 212.609375 187.351562 213.078125 187.601562 213.570312 187.804688 C 214.0625 188.011719 214.570312 188.164062 215.09375 188.269531 C 215.617188 188.371094 216.144531 188.425781 216.679688 188.425781 C 217.210938 188.425781 217.738281 188.371094 218.261719 188.269531 C 218.785156 188.164062 219.292969 188.011719 219.785156 187.804688 C 220.277344 187.601562 220.746094 187.351562 221.191406 187.054688 C 221.632812 186.757812 222.042969 186.421875 222.421875 186.046875 C 222.796875 185.667969 223.132812 185.257812 223.429688 184.816406 C 223.726562 184.371094 223.976562 183.902344 224.179688 183.410156 C 224.382812 182.917969 224.539062 182.410156 224.640625 181.886719 C 224.746094 181.367188 224.796875 180.835938 224.796875 180.304688 C 224.796875 179.769531 224.746094 179.242188 224.640625 178.71875 C 224.539062 178.199219 224.382812 177.691406 224.179688 177.195312 C 223.976562 176.703125 223.726562 176.238281 223.429688 175.792969 C 223.132812 175.351562 222.796875 174.941406 222.421875 174.5625 C 222.042969 174.1875 221.632812 173.847656 221.191406 173.554688 C 220.746094 173.257812 220.277344 173.007812 219.785156 172.804688 C 219.292969 172.597656 218.785156 172.445312 218.261719 172.339844 C 217.738281 172.238281 217.210938 172.183594 216.679688 172.183594 Z M 167.960938 207.371094 C 167.597656 207.363281 167.25 207.429688 166.914062 207.566406 C 166.578125 207.699219 166.28125 207.894531 166.023438 208.148438 C 165.765625 208.402344 165.566406 208.699219 165.425781 209.03125 C 165.285156 209.367188 165.214844 209.714844 165.214844 210.078125 C 165.214844 210.4375 165.285156 210.785156 165.425781 211.121094 C 165.566406 211.453125 165.765625 211.75 166.023438 212.003906 C 166.28125 212.257812 166.578125 212.453125 166.914062 212.585938 C 167.25 212.722656 167.597656 212.789062 167.960938 212.78125 L 222.09375 212.78125 C 222.453125 212.789062 222.804688 212.722656 223.140625 212.585938 C 223.476562 212.453125 223.773438 212.257812 224.03125 212.003906 C 224.289062 211.75 224.488281 211.453125 224.628906 211.121094 C 224.765625 210.785156 224.835938 210.4375 224.835938 210.078125 C 224.835938 209.714844 224.765625 209.367188 224.628906 209.03125 C 224.488281 208.699219 224.289062 208.402344 224.03125 208.148438 C 223.773438 207.894531 223.476562 207.699219 223.140625 207.566406 C 222.804688 207.429688 222.453125 207.363281 222.09375 207.371094 Z M 167.960938 207.371094 " fill-opacity="1" fill-rule="nonzero"/></g></svg>