<svg xmlns="http://www.w3.org/2000/svg" xmlns:xlink="http://www.w3.org/1999/xlink" width="500" height="500" viewBox="131 131 113 113" preserveAspectRatio="xMidYMid meet" version="1.0">
  <defs><clipPath id="6458e7d2f8"><path d="M 131.25 131.25 L 243.75 131.25 L 243.75 243.75 L 131.25 243.75 Z M 131.25 131.25 " clip-rule="nonzero"/></clipPath><clipPath id="9ce77082b3"><path d="M 187.5 131.25 C 156.433594 131.25 131.25 156.433594 131.25 187.5 C 131.25 218.566406 156.433594 243.75 187.5 243.75 C 218.566406 243.75 243.75 218.566406 243.75 187.5 C 243.75 156.433594 218.566406 131.25 187.5 131.25 Z M 187.5 131.25 " clip-rule="nonzero"/></clipPath><clipPath id="b8cf4366cf"><path d="M 198 167.171875 L 203 167.171875 L 203 181 L 198 181 Z M 198 167.171875 " clip-rule="nonzero"/></clipPath><clipPath id="25554dc94e"><path d="M 175 167.171875 L 181 167.171875 L 181 180 L 175 180 Z M 175 167.171875 " clip-rule="nonzero"/></clipPath><clipPath id="f7216952ac"><path d="M 156.808594 180 L 218.179688 180 L 218.179688 215.921875 L 156.808594 215.921875 Z M 156.808594 180 " clip-rule="nonzero"/></clipPath></defs><g clip-path="url(#6458e7d2f8)"><g clip-path="url(#9ce77082b3)"><path fill="#e6d1a2" d="M 131.25 131.25 L 243.75 131.25 L 243.75 243.75 L 131.25 243.75 Z M 131.25 131.25 " fill-opacity="1" fill-rule="nonzero"/></g></g><g clip-path="url(#b8cf4366cf)"><path fill="#000000" d="M 202.367188 169.382812 C 202.65625 170.941406 202.46875 172.691406 202.449219 174.296875 C 202.429688 175.984375 202.367188 177.628906 202.21875 179.292969 C 202.074219 180.898438 199.34375 181.125 199.011719 179.523438 C 198.617188 177.710938 198.429688 176.023438 198.46875 174.191406 C 198.53125 172.402344 198.59375 170.464844 199.28125 168.796875 C 199.554688 168.152344 200.386719 167.796875 201.03125 167.921875 C 201.804688 168.070312 202.21875 168.671875 202.367188 169.382812 Z M 202.367188 169.382812 " fill-opacity="1" fill-rule="nonzero"/></g><g clip-path="url(#25554dc94e)"><path fill="#000000" d="M 179.726562 168.839844 C 180.351562 170.089844 180.101562 171.941406 180.039062 173.316406 C 179.976562 174.921875 179.789062 176.398438 179.371094 177.941406 C 178.808594 180.042969 176.144531 179.730469 175.726562 177.730469 C 175.371094 176.066406 175.351562 174.546875 175.539062 172.859375 C 175.707031 171.339844 175.851562 169.527344 176.832031 168.277344 C 177.703125 167.171875 179.203125 167.777344 179.726562 168.839844 Z M 179.726562 168.839844 " fill-opacity="1" fill-rule="nonzero"/></g><g clip-path="url(#f7216952ac)"><path fill="#000000" d="M 218.070312 195.265625 C 218.132812 198.410156 216.550781 201.367188 214.800781 203.886719 C 213.070312 206.367188 210.863281 208.53125 208.382812 210.257812 C 203.65625 213.550781 197.867188 215.425781 192.117188 215.671875 C 186.285156 215.921875 180.308594 214.714844 175.183594 211.882812 C 170.082031 209.074219 165.769531 204.929688 162.625 200.015625 C 160.898438 197.308594 159.5 194.347656 158.523438 191.289062 C 158 189.707031 157.585938 188.0625 157.3125 186.414062 C 157.0625 184.792969 156.730469 182.9375 157.25 181.355469 C 157.75 179.855469 159.585938 179.648438 160.292969 181.125 C 160.855469 182.3125 160.917969 183.625 161.1875 184.917969 C 161.460938 186.1875 161.75 187.457031 162.125 188.707031 C 162.832031 191.101562 163.792969 193.433594 165.019531 195.597656 C 167.5 199.992188 170.914062 203.929688 175.164062 206.71875 C 183.578125 212.21875 194.949219 212.964844 203.949219 208.34375 C 206.574219 206.988281 209.007812 205.179688 211.007812 203.035156 C 213.277344 200.597656 214.570312 197.765625 216.132812 194.871094 C 216.589844 194.058594 218.046875 194.203125 218.070312 195.265625 Z M 218.070312 195.265625 " fill-opacity="1" fill-rule="nonzero"/></g></svg>