<svg xmlns="http://www.w3.org/2000/svg" xmlns:xlink="http://www.w3.org/1999/xlink" width="500" height="500" viewBox="131 131 113 113" preserveAspectRatio="xMidYMid meet" version="1.0">
  <defs><clipPath id="2b3d79e51a"><path d="M 131.25 131.25 L 243.75 131.25 L 243.75 243.75 L 131.25 243.75 Z M 131.25 131.25 " clip-rule="nonzero"/></clipPath><clipPath id="e863e523c4"><path d="M 187.5 131.25 C 156.433594 131.25 131.25 156.433594 131.25 187.5 C 131.25 218.566406 156.433594 243.75 187.5 243.75 C 218.566406 243.75 243.75 218.566406 243.75 187.5 C 243.75 156.433594 218.566406 131.25 187.5 131.25 Z M 187.5 131.25 " clip-rule="nonzero"/></clipPath><clipPath id="5117341d3a"><path d="M 174 165 L 179 165 L 179 181 L 174 181 Z M 174 165 " clip-rule="nonzero"/></clipPath><clipPath id="705360e155"><path d="M 158.339844 165.484375 L 223.441406 161.109375 L 227.765625 225.464844 L 162.660156 229.839844 Z M 158.339844 165.484375 " clip-rule="nonzero"/></clipPath><clipPath id="b82c635dc8"><path d="M 158.339844 165.484375 L 223.441406 161.109375 L 227.765625 225.464844 L 162.660156 229.839844 Z M 158.339844 165.484375 " clip-rule="nonzero"/></clipPath><clipPath id="8847b55ee2"><path d="M 158.339844 165.484375 L 223.441406 161.109375 L 227.765625 225.464844 L 162.660156 229.839844 Z M 158.339844 165.484375 " clip-rule="nonzero"/></clipPath><clipPath id="889b8d1db5"><path d="M 204 163 L 210 163 L 210 178 L 204 178 Z M 204 163 " clip-rule="nonzero"/></clipPath><clipPath id="ff21b792ab"><path d="M 158.339844 165.484375 L 223.441406 161.109375 L 227.765625 225.464844 L 162.660156 229.839844 Z M 158.339844 165.484375 " clip-rule="nonzero"/></clipPath><clipPath id="70fe5b78a8"><path d="M 158.339844 165.484375 L 223.441406 161.109375 L 227.765625 225.464844 L 162.660156 229.839844 Z M 158.339844 165.484375 " clip-rule="nonzero"/></clipPath><clipPath id="10478d4f8c"><path d="M 158.339844 165.484375 L 223.441406 161.109375 L 227.765625 225.464844 L 162.660156 229.839844 Z M 158.339844 165.484375 " clip-rule="nonzero"/></clipPath><clipPath id="d5d95d295f"><path d="M 162 188 L 226 188 L 226 228 L 162 228 Z M 162 188 " clip-rule="nonzero"/></clipPath><clipPath id="6dbf5b632e"><path d="M 158.339844 165.484375 L 223.441406 161.109375 L 227.765625 225.464844 L 162.660156 229.839844 Z M 158.339844 165.484375 " clip-rule="nonzero"/></clipPath><clipPath id="4caed035b4"><path d="M 158.339844 165.484375 L 223.441406 161.109375 L 227.765625 225.464844 L 162.660156 229.839844 Z M 158.339844 165.484375 " clip-rule="nonzero"/></clipPath><clipPath id="4efda2478e"><path d="M 158.339844 165.484375 L 223.441406 161.109375 L 227.765625 225.464844 L 162.660156 229.839844 Z M 158.339844 165.484375 " clip-rule="nonzero"/></clipPath></defs><g clip-path="url(#2b3d79e51a)"><g clip-path="url(#e863e523c4)"><path fill="#e6d1a2" d="M 131.25 131.25 L 243.75 131.25 L 243.75 243.75 L 131.25 243.75 Z M 131.25 131.25 " fill-opacity="1" fill-rule="nonzero"/></g></g><g clip-path="url(#5117341d3a)"><g clip-path="url(#705360e155)"><g clip-path="url(#b82c635dc8)"><g clip-path="url(#8847b55ee2)"><path fill="#000000" d="M 174.871094 166.242188 C 174.09375 170.589844 173.625 175.042969 174.933594 179.324219 C 175.558594 181.367188 178.621094 181.035156 178.679688 178.84375 C 178.8125 174.769531 178.136719 170.75 177.964844 166.671875 C 177.925781 164.996094 175.207031 164.390625 174.871094 166.242188 Z M 174.871094 166.242188 " fill-opacity="1" fill-rule="nonzero"/></g></g></g></g><g clip-path="url(#889b8d1db5)"><g clip-path="url(#ff21b792ab)"><g clip-path="url(#70fe5b78a8)"><g clip-path="url(#10478d4f8c)"><path fill="#000000" d="M 205.347656 164.449219 C 204.808594 165.171875 204.828125 166.238281 204.734375 167.109375 C 204.601562 168.160156 204.617188 169.199219 204.664062 170.261719 C 204.769531 172.1875 205 174.101562 205.378906 175.984375 C 205.792969 177.964844 209.214844 177.605469 209 175.535156 C 208.828125 173.746094 208.757812 171.917969 208.6875 170.121094 C 208.644531 169.132812 208.578125 168.144531 208.460938 167.164062 C 208.351562 166.253906 208.410156 165.261719 207.949219 164.453125 C 207.34375 163.402344 206 163.566406 205.347656 164.449219 Z M 205.347656 164.449219 " fill-opacity="1" fill-rule="nonzero"/></g></g></g></g><g clip-path="url(#d5d95d295f)"><g clip-path="url(#6dbf5b632e)"><g clip-path="url(#4caed035b4)"><g clip-path="url(#4efda2478e)"><path fill="#000000" d="M 162.894531 196.472656 C 161.289062 209.414062 169.878906 222.199219 182.304688 225.992188 C 188.660156 227.925781 195.578125 227.589844 201.710938 225.042969 C 207.941406 222.4375 213.007812 217.703125 216.851562 212.261719 C 221.441406 205.777344 224.054688 198.359375 225.191406 190.558594 C 225.351562 189.53125 224.738281 188.023438 223.398438 188.191406 C 214.742188 189.253906 206.09375 190.417969 197.410156 191.382812 C 193.078125 191.878906 188.71875 192.324219 184.382812 192.742188 C 182.203125 192.964844 180.027344 193.238281 177.847656 193.460938 C 175.621094 193.710938 173.570312 194.359375 171.382812 194.835938 C 169.546875 195.238281 169.984375 197.953125 171.777344 198.011719 C 173.972656 198.066406 176.109375 198.328125 178.289062 198.132812 C 180.472656 197.933594 182.652344 197.738281 184.804688 197.492188 C 189.183594 196.96875 193.5625 196.417969 197.9375 195.847656 C 206.585938 194.679688 215.230469 193.464844 223.824219 191.84375 C 223.042969 191.238281 222.234375 190.628906 221.453125 190.023438 C 220.492188 201.878906 213.21875 214.386719 202.605469 220.128906 C 192.4375 225.640625 179.148438 223.027344 171.71875 214.226562 C 167.585938 209.34375 165.621094 202.84375 165.882812 196.527344 C 166.003906 194.511719 163.128906 194.601562 162.894531 196.472656 Z M 162.894531 196.472656 " fill-opacity="1" fill-rule="nonzero"/></g></g></g></g></svg>