<svg xmlns="http://www.w3.org/2000/svg" xmlns:xlink="http://www.w3.org/1999/xlink" width="500" zoomAndPan="magnify" viewBox="0 0 375 374.999991" height="500" preserveAspectRatio="xMidYMid meet" version="1.0"><defs><g/><clipPath id="91614a9e90"><path d="M 190 74.492188 L 199 74.492188 L 199 111 L 190 111 Z M 190 74.492188 " clip-rule="nonzero"/></clipPath><clipPath id="9989943949"><path d="M 79.136719 164 L 115 164 L 115 172 L 79.136719 172 Z M 79.136719 164 " clip-rule="nonzero"/></clipPath><clipPath id="256d8c0ecf"><path d="M 159.023438 139 L 215.507812 139 L 215.507812 173 L 159.023438 173 Z M 159.023438 139 " clip-rule="nonzero"/></clipPath></defs><path fill="#e6d1a2" d="M 225.496094 143.398438 C 221.195312 137.921875 216.300781 132.8125 210.414062 129.089844 C 197.742188 121.054688 181.148438 120.257812 167.15625 125.683594 C 153.164062 131.105469 141.800781 142.308594 134.761719 155.558594 C 131.949219 160.851562 129.765625 166.875 130.21875 172.742188 L 239.980469 172.742188 C 237.785156 162.070312 232.28125 152.042969 225.496094 143.398438 Z M 225.496094 143.398438 " fill-opacity="1" fill-rule="nonzero"/><path fill="#83adf1" d="M 233.796875 81.640625 C 231.882812 81.507812 230.824219 82.015625 230.246094 83.289062 C 230.015625 83.722656 229.929688 84.183594 229.84375 84.640625 C 228.230469 89.453125 226.667969 94.570312 224.167969 101.339844 C 223.460938 103.648438 222.414062 107.175781 221.007812 111.300781 C 220.636719 112.433594 220.335938 113.589844 220.097656 114.78125 C 219.902344 115.863281 220.164062 117.238281 221.304688 117.742188 C 222.53125 118.21875 223.40625 116.558594 224.078125 115.664062 C 225.296875 113.9375 228.847656 107.3125 230.957031 102.585938 C 232.535156 99.136719 233.859375 95.570312 234.894531 91.847656 C 235.535156 89.417969 236.519531 86.984375 236.609375 84.257812 C 236.640625 82.699219 235.457031 81.804688 233.796875 81.640625 Z M 233.796875 81.640625 " fill-opacity="1" fill-rule="nonzero"/><g clip-path="url(#91614a9e90)"><path fill="#e6d1a2" d="M 195.09375 74.605469 C 193.195312 74.703125 192.195312 75.386719 191.886719 76.816406 C 191.757812 77.292969 191.765625 77.769531 191.78125 78.242188 C 191.371094 83.242188 191.445312 88.273438 190.804688 95.019531 C 190.738281 97.277344 190.628906 100.722656 190.167969 104.761719 C 190.0625 105.867188 190 106.980469 190.011719 108.113281 C 190.035156 109.140625 190.546875 110.363281 191.75 110.671875 C 193.035156 110.945312 193.605469 109.230469 194.078125 108.265625 C 194.5 107.335938 195.25 105.144531 195.9375 102.554688 C 196.636719 99.964844 197.28125 96.972656 197.679688 94.523438 C 198.292969 90.933594 198.554688 87.289062 198.539062 83.652344 C 198.496094 81.289062 198.761719 78.855469 198.316406 76.492188 C 198.050781 75.175781 196.78125 74.578125 195.09375 74.605469 Z M 195.09375 74.605469 " fill-opacity="1" fill-rule="nonzero"/></g><path fill="#57cba9" d="M 145.683594 79.441406 C 144.988281 80.09375 144.570312 80.730469 144.375 81.34375 C 144.183594 81.960938 144.21875 82.515625 144.511719 83.265625 C 144.6875 83.757812 144.980469 84.144531 145.265625 84.59375 C 146.628906 87.046875 147.996094 89.507812 149.488281 92.191406 C 151.007812 94.894531 152.679688 97.828125 154.5 101.25 C 155.839844 103.464844 157.917969 106.8125 160.164062 110.855469 C 160.777344 111.953125 161.472656 113.023438 162.1875 114.054688 C 162.875 114.980469 164.015625 115.777344 165.199219 115.363281 C 166.421875 114.855469 165.777344 112.890625 165.539062 111.722656 C 165.0625 109.476562 162.203125 101.929688 159.898438 96.921875 C 158.242188 93.230469 156.351562 89.65625 154.207031 86.179688 C 152.789062 83.929688 151.601562 81.453125 149.628906 79.351562 C 149.105469 78.785156 148.359375 78.484375 147.675781 78.523438 C 146.984375 78.550781 146.316406 78.886719 145.683594 79.441406 Z M 145.683594 79.441406 " fill-opacity="1" fill-rule="nonzero"/><path fill="#ffa087" d="M 106.191406 107.242188 C 105.261719 108.90625 105.402344 110.15625 106.640625 111.28125 C 107.042969 111.679688 107.511719 111.953125 107.984375 112.226562 C 112.683594 115.570312 117.683594 118.503906 124.050781 123.011719 C 126.253906 124.394531 129.613281 126.5 133.410156 129.226562 C 134.457031 129.953125 135.53125 130.648438 136.664062 131.285156 C 137.6875 131.851562 139.132812 132.085938 139.980469 131.175781 C 140.832031 130.171875 139.394531 128.699219 138.667969 127.730469 C 137.269531 125.898438 131.335938 120.207031 126.917969 116.714844 C 123.714844 114.113281 120.308594 111.769531 116.773438 109.660156 C 114.457031 108.308594 112.242188 106.648438 109.730469 105.628906 C 108.316406 105.085938 107.0625 105.804688 106.191406 107.242188 Z M 106.191406 107.242188 " fill-opacity="1" fill-rule="nonzero"/><path fill="#83adf1" d="M 80.964844 137.027344 C 80.648438 138.910156 81.164062 140.027344 82.789062 140.761719 C 83.320312 141.023438 83.890625 141.152344 84.464844 141.28125 C 90.382812 143.148438 96.550781 144.503906 104.792969 146.488281 C 107.585938 146.996094 111.828125 147.769531 116.824219 148.679688 C 118.191406 148.921875 119.574219 149.09375 120.996094 149.175781 C 122.273438 149.234375 123.820312 148.773438 124.089844 147.558594 C 124.3125 146.265625 122.273438 145.648438 121.121094 145.085938 C 118.90625 144.097656 110.707031 141.296875 105.046875 139.550781 C 100.898438 138.25 96.695312 137.160156 92.445312 136.226562 C 89.671875 135.644531 86.914062 134.699219 84.015625 134.441406 C 82.394531 134.304688 81.296875 135.382812 80.964844 137.027344 Z M 80.964844 137.027344 " fill-opacity="1" fill-rule="nonzero"/><g clip-path="url(#9989943949)"><path fill="#e6d1a2" d="M 79.136719 167.945312 C 79.214844 169.847656 79.890625 170.84375 81.335938 171.152344 C 81.820312 171.277344 82.296875 171.257812 82.773438 171.238281 C 87.832031 171.539062 92.914062 171.183594 99.75 170.910156 C 102.027344 170.667969 105.476562 170.246094 109.546875 169.859375 C 110.65625 169.742188 111.765625 169.546875 112.871094 169.285156 C 113.867188 169.019531 114.933594 168.234375 114.9375 166.992188 C 114.886719 165.675781 113.121094 165.539062 112.105469 165.289062 C 110.152344 164.867188 103.148438 164.328125 98.359375 164.15625 C 94.851562 164.011719 91.351562 164.078125 87.851562 164.296875 C 85.578125 164.460938 83.234375 164.265625 80.96875 164.726562 C 79.703125 164.992188 79.117188 166.261719 79.136719 167.945312 Z M 79.136719 167.945312 " fill-opacity="1" fill-rule="nonzero"/></g><path fill="#57cba9" d="M 268.480469 107.625 C 267.847656 105.839844 266.78125 105.132812 265.035156 105.472656 C 264.460938 105.578125 263.945312 105.816406 263.429688 106.054688 C 257.890625 108.222656 253.058594 111.453125 246.683594 115.734375 C 244.675781 117.296875 241.617188 119.671875 238.015625 122.472656 C 237.039062 123.230469 236.109375 124.042969 235.214844 124.910156 C 234.421875 125.710938 233.824219 126.988281 234.453125 128.066406 C 235.164062 129.171875 236.933594 128.265625 238.023438 127.871094 C 240.109375 127.085938 246.949219 123.304688 251.515625 120.691406 C 254.882812 118.792969 258.136719 116.773438 261.355469 114.8125 C 263.449219 113.523438 265.761719 112.578125 267.738281 111.320312 C 268.816406 110.632812 268.984375 109.234375 268.480469 107.625 Z M 268.480469 107.625 " fill-opacity="1" fill-rule="nonzero"/><path fill="#ffa087" d="M 293.890625 140.085938 C 293.765625 138.535156 292.679688 137.765625 290.511719 137.792969 C 289.792969 137.78125 289.082031 137.882812 288.386719 138.003906 C 280.980469 138.835938 273.714844 140.457031 263.933594 142.613281 C 260.703125 143.46875 255.808594 144.808594 250.039062 146.453125 C 248.464844 146.925781 246.914062 147.441406 245.367188 148.082031 C 243.980469 148.644531 242.574219 149.777344 242.851562 150.753906 C 243.214844 151.769531 245.640625 151.179688 247.117188 151.039062 C 249.898438 150.648438 259.894531 148.917969 266.734375 147.75 C 271.746094 146.890625 276.734375 145.902344 281.695312 144.875 C 284.921875 144.183594 288.289062 143.8125 291.4375 143.027344 C 293.195312 142.574219 293.925781 141.492188 293.890625 140.085938 Z M 293.890625 140.085938 " fill-opacity="1" fill-rule="nonzero"/><path fill="#e6d1a2" d="M 295.769531 168.628906 C 295.84375 166.945312 295.101562 165.996094 293.355469 165.59375 C 292.773438 165.4375 292.183594 165.402344 291.597656 165.371094 C 285.429688 164.585938 279.167969 164.3125 270.78125 163.535156 C 267.972656 163.402344 263.699219 163.230469 258.683594 162.835938 C 257.3125 162.746094 255.9375 162.703125 254.542969 162.726562 C 253.289062 162.761719 251.859375 163.242188 251.652344 164.332031 C 251.5 165.488281 253.628906 165.957031 254.84375 166.363281 C 257.160156 167.117188 265.703125 168.835938 271.601562 169.671875 C 275.921875 170.324219 280.269531 170.730469 284.628906 170.945312 C 287.464844 171.0625 290.359375 171.488281 293.210938 171.300781 C 294.800781 171.183594 295.640625 170.121094 295.769531 168.628906 Z M 295.769531 168.628906 " fill-opacity="1" fill-rule="nonzero"/><path fill="#000000" d="M 173.554688 129.742188 C 173.285156 131.195312 173.457031 132.828125 173.476562 134.320312 C 173.496094 135.890625 173.554688 137.421875 173.6875 138.976562 C 173.820312 140.46875 176.328125 140.683594 176.632812 139.1875 C 176.996094 137.5 177.167969 135.929688 177.128906 134.222656 C 177.070312 132.554688 177.015625 130.75 176.382812 129.199219 C 176.136719 128.597656 175.371094 128.269531 174.777344 128.382812 C 174.070312 128.519531 173.6875 129.082031 173.554688 129.742188 Z M 173.554688 129.742188 " fill-opacity="1" fill-rule="nonzero"/><path fill="#000000" d="M 194.34375 129.238281 C 193.769531 130.402344 194 132.128906 194.054688 133.410156 C 194.113281 134.902344 194.285156 136.277344 194.667969 137.714844 C 195.183594 139.671875 197.632812 139.382812 198.015625 137.519531 C 198.339844 135.96875 198.359375 134.550781 198.1875 132.980469 C 198.035156 131.566406 197.902344 129.878906 197 128.714844 C 196.199219 127.6875 194.820312 128.25 194.34375 129.238281 Z M 194.34375 129.238281 " fill-opacity="1" fill-rule="nonzero"/><g clip-path="url(#256d8c0ecf)"><path fill="#000000" d="M 159.132812 153.851562 C 159.074219 156.78125 160.527344 159.535156 162.132812 161.882812 C 163.722656 164.191406 165.75 166.207031 168.027344 167.816406 C 172.367188 170.882812 177.683594 172.628906 182.964844 172.863281 C 188.320312 173.09375 193.808594 171.96875 198.511719 169.332031 C 203.199219 166.710938 207.15625 162.851562 210.046875 158.273438 C 211.632812 155.753906 212.914062 153 213.8125 150.148438 C 214.292969 148.671875 214.675781 147.140625 214.921875 145.609375 C 215.152344 144.097656 215.457031 142.371094 214.980469 140.894531 C 214.519531 139.5 212.839844 139.304688 212.1875 140.683594 C 211.671875 141.789062 211.613281 143.007812 211.367188 144.210938 C 211.117188 145.394531 210.847656 146.578125 210.503906 147.742188 C 209.855469 149.972656 208.976562 152.144531 207.847656 154.164062 C 205.570312 158.253906 202.433594 161.921875 198.53125 164.519531 C 190.804688 169.640625 180.363281 170.339844 172.097656 166.035156 C 169.691406 164.773438 167.453125 163.085938 165.617188 161.085938 C 163.53125 158.816406 162.34375 156.179688 160.910156 153.484375 C 160.488281 152.726562 159.152344 152.863281 159.132812 153.851562 Z M 159.132812 153.851562 " fill-opacity="1" fill-rule="nonzero"/></g><g fill="#57cba9" fill-opacity="1"><g transform="translate(133.019389, 284.940765)"><g><path d="M 5.429688 -6.875 C 8.789062 -6.875 12.925781 -8.789062 16.804688 -15.148438 C 16.90625 -15.304688 16.960938 -15.460938 16.960938 -15.667969 C 16.960938 -16.132812 16.804688 -16.390625 16.441406 -16.546875 C 16.285156 -16.648438 16.082031 -16.699219 15.925781 -16.699219 C 15.5625 -16.699219 15.253906 -16.546875 15.046875 -16.234375 C 13.238281 -13.183594 11.273438 -11.167969 9.203125 -9.980469 C 8.015625 -9.359375 6.617188 -8.945312 5.222656 -8.945312 C 3.308594 -8.945312 1.65625 -9.773438 1.65625 -11.996094 C 1.65625 -12.253906 1.707031 -12.511719 1.757812 -12.875 C 5.222656 -13.132812 9.308594 -15.667969 9.308594 -18.40625 C 9.308594 -19.90625 8.167969 -21.09375 6.515625 -21.09375 C 5.480469 -21.09375 4.238281 -20.628906 2.945312 -19.390625 C 0.929688 -17.476562 -0.363281 -14.527344 -0.363281 -11.996094 C -0.363281 -9.253906 1.242188 -6.875 5.429688 -6.875 Z M 2.480469 -15.097656 C 3.878906 -17.992188 5.585938 -19.027344 6.566406 -19.027344 C 6.929688 -19.027344 7.136719 -18.925781 7.1875 -18.664062 C 7.445312 -17.476562 5.015625 -15.511719 2.480469 -15.097656 Z M 2.480469 -15.097656 "/></g></g></g><g fill="#57cba9" fill-opacity="1"><g transform="translate(147.388648, 284.940765)"><g><path d="M -1.242188 -7.652344 C -0.980469 -7.496094 -0.777344 -7.445312 -0.621094 -7.445312 C -0.257812 -7.445312 0 -7.601562 0.207031 -7.859375 C 1.085938 -9.046875 2.015625 -9.925781 3 -10.910156 C 4.5 -8.167969 6.410156 -6.824219 8.480469 -6.824219 C 10.238281 -6.824219 12.046875 -7.703125 13.855469 -9.515625 C 16.082031 -11.582031 17.683594 -14.375 18.355469 -15.148438 C 18.511719 -15.304688 18.5625 -15.511719 18.5625 -15.769531 C 18.5625 -16.132812 18.40625 -16.390625 18.148438 -16.597656 C 17.992188 -16.753906 17.785156 -16.804688 17.527344 -16.804688 C 17.164062 -16.804688 16.90625 -16.699219 16.699219 -16.441406 C 14.582031 -13.648438 11.582031 -8.894531 8.582031 -8.894531 C 7.1875 -8.894531 5.789062 -9.875 4.5 -12.511719 C 6.101562 -14.320312 7.910156 -16.597656 10.132812 -20.941406 C 10.238281 -21.09375 10.289062 -21.25 10.289062 -21.457031 C 10.289062 -22.027344 9.875 -22.441406 9.253906 -22.441406 C 8.839844 -22.441406 8.53125 -22.234375 8.324219 -21.871094 C 6.515625 -18.355469 4.964844 -16.183594 3.566406 -14.582031 C 3 -16.183594 2.429688 -18.097656 1.964844 -20.320312 C 1.808594 -20.785156 1.394531 -21.09375 0.929688 -21.09375 L 0.722656 -21.09375 C 0.207031 -20.941406 -0.0507812 -20.578125 -0.0507812 -20.0625 L -0.0507812 -19.855469 C 0.570312 -17.113281 1.242188 -14.789062 2.015625 -12.925781 C 0.828125 -11.683594 -0.257812 -10.703125 -1.449219 -9.101562 C -1.601562 -8.894531 -1.65625 -8.6875 -1.65625 -8.480469 C -1.65625 -8.117188 -1.5 -7.859375 -1.242188 -7.652344 Z M -1.242188 -7.652344 "/></g></g></g><g fill="#57cba9" fill-opacity="1"><g transform="translate(163.515313, 284.940765)"><g><path d="M 2.171875 14.890625 C 2.742188 14.890625 3.207031 14.425781 3.207031 13.855469 C 3.152344 12.875 3.152344 11.945312 3.152344 10.960938 L 3.152344 8.066406 C 3.152344 3.050781 3.207031 -1.863281 3.359375 -6.980469 C 3.515625 -6.929688 3.773438 -6.929688 4.085938 -6.929688 C 5.480469 -6.929688 6.824219 -7.550781 8.015625 -8.324219 C 11.425781 -10.652344 13.496094 -14.582031 13.496094 -17.425781 C 13.496094 -19.542969 12.410156 -21.148438 9.773438 -21.148438 C 7.753906 -21.148438 5.636719 -20.214844 3.824219 -19.027344 L 3.980469 -22.285156 C 3.980469 -22.855469 3.566406 -23.371094 3 -23.371094 C 2.429688 -23.421875 1.964844 -22.957031 1.914062 -22.386719 C 1.757812 -20.683594 1.808594 -18.976562 1.65625 -17.269531 C 0.878906 -16.492188 0.207031 -15.71875 -0.363281 -14.941406 C -0.464844 -14.734375 -0.515625 -14.527344 -0.515625 -14.375 C -0.515625 -14.011719 -0.363281 -13.703125 -0.0507812 -13.496094 C 0.101562 -13.390625 0.308594 -13.339844 0.570312 -13.339844 C 0.929688 -13.339844 1.242188 -13.496094 1.394531 -13.753906 L 1.550781 -14.011719 C 1.242188 -6.464844 1.085938 0.980469 1.085938 8.273438 C 1.085938 10.132812 1.136719 12.046875 1.136719 13.910156 C 1.136719 14.476562 1.601562 14.890625 2.171875 14.890625 Z M 3.414062 -9.101562 C 3.566406 -11.53125 3.515625 -13.910156 3.671875 -16.339844 C 5.789062 -18.148438 8.167969 -19.078125 9.773438 -19.078125 C 10.339844 -19.078125 10.753906 -18.976562 11.011719 -18.71875 C 11.375 -18.40625 11.53125 -17.941406 11.53125 -17.320312 C 11.53125 -14.375 7.394531 -8.996094 4.085938 -8.996094 C 3.929688 -8.996094 3.671875 -9.046875 3.414062 -9.101562 Z M 3.414062 -9.101562 "/></g></g></g><g fill="#57cba9" fill-opacity="1"><g transform="translate(179.538588, 284.940765)"><g><path d="M 4.707031 -6.875 C 7.910156 -6.875 11.425781 -12.410156 12.925781 -15.148438 C 12.976562 -15.253906 13.03125 -15.40625 13.03125 -15.667969 C 13.03125 -16.082031 12.875 -16.390625 12.511719 -16.597656 C 12.304688 -16.648438 12.152344 -16.699219 12.046875 -16.699219 C 11.632812 -16.699219 11.324219 -16.492188 11.117188 -16.132812 C 9.203125 -12.71875 6.308594 -8.945312 4.757812 -8.945312 C 4.601562 -8.945312 4.5 -8.996094 4.34375 -9.046875 C 3.671875 -9.460938 2.585938 -10.082031 2.585938 -14.839844 C 2.585938 -19.128906 3.464844 -25.902344 5.480469 -35.832031 C 5.585938 -36.503906 5.324219 -36.917969 4.652344 -37.074219 C 4.085938 -37.226562 3.621094 -36.8125 3.464844 -36.246094 C 2.222656 -29.988281 0.515625 -21.507812 0.515625 -15.304688 C 0.515625 -10.394531 1.550781 -6.875 4.707031 -6.875 Z M 4.707031 -6.875 "/></g></g></g><g fill="#57cba9" fill-opacity="1"><g transform="translate(190.082929, 284.940765)"><g><path d="M 8.222656 -9.667969 C 8.996094 -11.066406 9.460938 -12.667969 9.460938 -14.269531 C 10.03125 -14.167969 10.597656 -14.117188 11.273438 -14.117188 C 12.460938 -14.117188 13.753906 -14.320312 15.148438 -14.683594 C 15.667969 -14.839844 15.925781 -15.203125 15.925781 -15.769531 L 15.925781 -15.976562 C 15.769531 -16.390625 15.355469 -16.753906 14.890625 -16.753906 C 14.734375 -16.753906 14.789062 -16.699219 14.632812 -16.699219 C 13.441406 -16.339844 12.359375 -16.183594 11.324219 -16.183594 C 10.496094 -16.183594 9.773438 -16.339844 9.152344 -16.492188 C 8.738281 -18.355469 7.03125 -21.148438 5.066406 -20.890625 C 4.910156 -20.992188 4.707031 -21.042969 4.5 -21.042969 C 4.238281 -21.042969 3.980469 -20.992188 3.824219 -20.835938 C 2.328125 -19.542969 1.1875 -17.890625 0.621094 -15.875 C 0.257812 -14.734375 0.101562 -13.648438 0.101562 -12.617188 C 0.101562 -9.101562 2.066406 -6.875 4.292969 -6.875 C 5.6875 -6.875 7.03125 -7.753906 8.222656 -9.667969 Z M 6.410156 -10.753906 C 5.636719 -9.515625 4.910156 -8.894531 4.238281 -8.894531 C 3.050781 -8.894531 2.222656 -10.597656 2.222656 -12.824219 C 2.222656 -14.476562 2.742188 -16.441406 4.03125 -18.097656 C 4.5 -16.90625 5.636719 -15.71875 7.34375 -14.941406 C 7.34375 -14.734375 7.394531 -14.527344 7.394531 -14.269531 C 7.394531 -12.976562 6.980469 -11.738281 6.410156 -10.753906 Z M 6.410156 -10.753906 "/></g></g></g><g fill="#57cba9" fill-opacity="1"><g transform="translate(203.676875, 284.940765)"><g><path d="M 1.035156 -7.289062 C 1.601562 -7.289062 2.066406 -7.703125 2.066406 -8.273438 C 2.328125 -13.804688 7.703125 -19.90625 10.394531 -19.390625 C 10.960938 -19.234375 11.425781 -19.597656 11.582031 -20.164062 C 11.738281 -20.734375 11.375 -21.25 10.804688 -21.40625 C 10.445312 -21.457031 10.1875 -21.507812 9.980469 -21.507812 C 7.082031 -21.507812 4.03125 -18.148438 2.535156 -15.667969 C 2.6875 -17.164062 2.742188 -18.71875 2.742188 -20.320312 C 2.742188 -20.890625 2.273438 -21.355469 1.707031 -21.355469 C 1.136719 -21.355469 0.671875 -20.890625 0.671875 -20.320312 C 0.621094 -16.390625 0.0507812 -12.410156 0 -8.324219 C 0 -7.753906 0.464844 -7.34375 1.035156 -7.289062 Z M 1.035156 -7.289062 "/></g></g></g><g fill="#57cba9" fill-opacity="1"><g transform="translate(215.616804, 284.940765)"><g><path d="M 5.429688 -6.875 C 8.789062 -6.875 12.925781 -8.789062 16.804688 -15.148438 C 16.90625 -15.304688 16.960938 -15.460938 16.960938 -15.667969 C 16.960938 -16.132812 16.804688 -16.390625 16.441406 -16.546875 C 16.285156 -16.648438 16.082031 -16.699219 15.925781 -16.699219 C 15.5625 -16.699219 15.253906 -16.546875 15.046875 -16.234375 C 13.238281 -13.183594 11.273438 -11.167969 9.203125 -9.980469 C 8.015625 -9.359375 6.617188 -8.945312 5.222656 -8.945312 C 3.308594 -8.945312 1.65625 -9.773438 1.65625 -11.996094 C 1.65625 -12.253906 1.707031 -12.511719 1.757812 -12.875 C 5.222656 -13.132812 9.308594 -15.667969 9.308594 -18.40625 C 9.308594 -19.90625 8.167969 -21.09375 6.515625 -21.09375 C 5.480469 -21.09375 4.238281 -20.628906 2.945312 -19.390625 C 0.929688 -17.476562 -0.363281 -14.527344 -0.363281 -11.996094 C -0.363281 -9.253906 1.242188 -6.875 5.429688 -6.875 Z M 2.480469 -15.097656 C 3.878906 -17.992188 5.585938 -19.027344 6.566406 -19.027344 C 6.929688 -19.027344 7.136719 -18.925781 7.1875 -18.664062 C 7.445312 -17.476562 5.015625 -15.511719 2.480469 -15.097656 Z M 2.480469 -15.097656 "/></g></g></g><g fill="#57cba9" fill-opacity="1"><g transform="translate(229.986063, 284.940765)"><g><path d="M 1.035156 -7.289062 C 1.601562 -7.289062 2.066406 -7.703125 2.066406 -8.273438 C 2.328125 -13.804688 7.703125 -19.90625 10.394531 -19.390625 C 10.960938 -19.234375 11.425781 -19.597656 11.582031 -20.164062 C 11.738281 -20.734375 11.375 -21.25 10.804688 -21.40625 C 10.445312 -21.457031 10.1875 -21.507812 9.980469 -21.507812 C 7.082031 -21.507812 4.03125 -18.148438 2.535156 -15.667969 C 2.6875 -17.164062 2.742188 -18.71875 2.742188 -20.320312 C 2.742188 -20.890625 2.273438 -21.355469 1.707031 -21.355469 C 1.136719 -21.355469 0.671875 -20.890625 0.671875 -20.320312 C 0.621094 -16.390625 0.0507812 -12.410156 0 -8.324219 C 0 -7.753906 0.464844 -7.34375 1.035156 -7.289062 Z M 1.035156 -7.289062 "/></g></g></g><g fill="#57cba9" fill-opacity="1"><g transform="translate(9.083795, 234.627073)"><g><path d="M 16.15625 -34.625 C 21.476562 -34.625 25.390625 -33.675781 27.890625 -31.78125 C 30.390625 -29.894531 31.640625 -27.03125 31.640625 -23.1875 C 31.640625 -19.269531 30.375 -16.34375 27.84375 -14.40625 C 25.3125 -12.46875 21.691406 -11.5 16.984375 -11.5 L 12.453125 -11.5 L 12.453125 0.140625 C 12.203125 0.203125 11.710938 0.265625 10.984375 0.328125 C 10.265625 0.398438 9.664062 0.4375 9.1875 0.4375 C 7.738281 0.4375 6.660156 0.332031 5.953125 0.125 C 5.253906 -0.0820312 4.769531 -0.453125 4.5 -0.984375 C 4.226562 -1.515625 4.09375 -2.328125 4.09375 -3.421875 L 4.09375 -28.09375 L 0.671875 -28.09375 C 0.609375 -28.46875 0.5625 -28.90625 0.53125 -29.40625 C 0.5 -29.90625 0.484375 -30.378906 0.484375 -30.828125 C 0.484375 -31.816406 0.601562 -32.582031 0.84375 -33.125 C 1.082031 -33.675781 1.46875 -34.0625 2 -34.28125 C 2.53125 -34.507812 3.273438 -34.625 4.234375 -34.625 Z M 16.875 -18.234375 C 19.03125 -18.234375 20.632812 -18.628906 21.6875 -19.421875 C 22.75 -20.222656 23.28125 -21.441406 23.28125 -23.078125 C 23.28125 -24.710938 22.757812 -25.929688 21.71875 -26.734375 C 20.675781 -27.535156 19.0625 -27.9375 16.875 -27.9375 L 12.453125 -27.9375 L 12.453125 -18.234375 Z M 16.875 -18.234375 "/></g></g></g><g fill="#57cba9" fill-opacity="1"><g transform="translate(41.919747, 234.627073)"><g><path d="M 27.890625 -7.890625 C 27.953125 -7.503906 28.007812 -6.984375 28.0625 -6.328125 C 28.113281 -5.671875 28.140625 -5.019531 28.140625 -4.375 C 28.140625 -2.832031 27.878906 -1.71875 27.359375 -1.03125 C 26.847656 -0.34375 25.9375 0 24.625 0 L 9 0 C 7.394531 0 6.191406 -0.148438 5.390625 -0.453125 C 4.585938 -0.753906 4.03125 -1.273438 3.71875 -2.015625 C 3.414062 -2.753906 3.265625 -3.847656 3.265625 -5.296875 L 3.265625 -34.8125 C 3.554688 -34.882812 4.046875 -34.953125 4.734375 -35.015625 C 5.421875 -35.078125 6.054688 -35.109375 6.640625 -35.109375 C 8.179688 -35.109375 9.328125 -35.003906 10.078125 -34.796875 C 10.828125 -34.585938 11.347656 -34.21875 11.640625 -33.6875 C 11.929688 -33.15625 12.078125 -32.347656 12.078125 -31.265625 L 12.078125 -7.890625 Z M 27.890625 -7.890625 "/></g></g></g><g fill="#57cba9" fill-opacity="1"><g transform="translate(70.669248, 234.627073)"><g><path d="M 36.75 0 C 36.226562 0.09375 35.59375 0.171875 34.84375 0.234375 C 34.09375 0.304688 33.441406 0.34375 32.890625 0.34375 C 31.609375 0.34375 30.582031 0.242188 29.8125 0.046875 C 29.039062 -0.140625 28.382812 -0.5 27.84375 -1.03125 C 27.300781 -1.5625 26.835938 -2.335938 26.453125 -3.359375 L 24.859375 -7.59375 L 10.09375 -7.59375 C 9.257812 -5.09375 8.585938 -2.5625 8.078125 0 C 7.566406 0.09375 6.929688 0.171875 6.171875 0.234375 C 5.421875 0.304688 4.757812 0.34375 4.1875 0.34375 C 1.582031 0.34375 0.28125 -0.539062 0.28125 -2.3125 C 0.28125 -2.914062 0.429688 -3.78125 0.734375 -4.90625 C 1.046875 -6.03125 1.472656 -7.265625 2.015625 -8.609375 C 3.328125 -12.097656 5.125 -16.0625 7.40625 -20.5 C 9.6875 -24.945312 11.929688 -28.882812 14.140625 -32.3125 L 13.21875 -35.0625 C 13.707031 -35.15625 14.300781 -35.234375 15 -35.296875 C 15.707031 -35.359375 16.347656 -35.390625 16.921875 -35.390625 C 18.398438 -35.390625 19.539062 -35.222656 20.34375 -34.890625 C 21.144531 -34.554688 21.816406 -33.972656 22.359375 -33.140625 C 22.910156 -32.304688 23.566406 -30.988281 24.328125 -29.1875 Z M 22.3125 -14.28125 L 17.890625 -25.921875 C 15.898438 -22.109375 14.117188 -18.226562 12.546875 -14.28125 Z M 22.3125 -14.28125 "/></g></g></g><g fill="#57cba9" fill-opacity="1"><g transform="translate(107.63975, 234.627073)"><g><path d="M 32.9375 -31.359375 C 32.9375 -30.492188 32.5625 -29.320312 31.8125 -27.84375 C 31.0625 -26.375 30.007812 -24.722656 28.65625 -22.890625 C 26.445312 -19.878906 23.914062 -16.960938 21.0625 -14.140625 L 21.0625 0.140625 C 20.738281 0.203125 20.21875 0.265625 19.5 0.328125 C 18.78125 0.398438 18.128906 0.4375 17.546875 0.4375 C 16.015625 0.4375 14.882812 0.332031 14.15625 0.125 C 13.4375 -0.0820312 12.941406 -0.453125 12.671875 -0.984375 C 12.398438 -1.515625 12.265625 -2.328125 12.265625 -3.421875 L 12.265625 -13.703125 L -0.578125 -34.140625 C -0.128906 -34.398438 0.585938 -34.617188 1.578125 -34.796875 C 2.578125 -34.972656 3.554688 -35.0625 4.515625 -35.0625 C 5.796875 -35.0625 6.828125 -34.960938 7.609375 -34.765625 C 8.398438 -34.578125 9.09375 -34.207031 9.6875 -33.65625 C 10.28125 -33.113281 10.847656 -32.285156 11.390625 -31.171875 L 17.3125 -20.578125 C 18.882812 -22.660156 20.375 -24.984375 21.78125 -27.546875 C 23.195312 -30.117188 24.351562 -32.625 25.25 -35.0625 C 26.976562 -35.03125 28.394531 -34.914062 29.5 -34.71875 C 30.613281 -34.53125 31.460938 -34.160156 32.046875 -33.609375 C 32.640625 -33.066406 32.9375 -32.316406 32.9375 -31.359375 Z M 32.9375 -31.359375 "/></g></g></g><g fill="#57cba9" fill-opacity="1"><g transform="translate(140.908411, 234.627073)"><g><path d="M 30.59375 -20 C 31.9375 -20 33.007812 -19.851562 33.8125 -19.5625 C 34.613281 -19.28125 35.210938 -18.753906 35.609375 -17.984375 C 36.015625 -17.210938 36.21875 -16.125 36.21875 -14.71875 C 36.21875 -11.570312 35.539062 -8.835938 34.1875 -6.515625 C 32.84375 -4.191406 30.925781 -2.394531 28.4375 -1.125 C 25.957031 0.132812 23.066406 0.765625 19.765625 0.765625 C 15.984375 0.765625 12.753906 0.078125 10.078125 -1.296875 C 7.398438 -2.671875 5.351562 -4.707031 3.9375 -7.40625 C 2.53125 -10.101562 1.828125 -13.375 1.828125 -17.21875 C 1.828125 -20.96875 2.59375 -24.210938 4.125 -26.953125 C 5.664062 -29.691406 7.863281 -31.78125 10.71875 -33.21875 C 13.570312 -34.664062 16.941406 -35.390625 20.828125 -35.390625 C 22.742188 -35.390625 24.507812 -35.1875 26.125 -34.78125 C 27.75 -34.382812 29.15625 -33.835938 30.34375 -33.140625 C 31.269531 -32.660156 31.984375 -32.066406 32.484375 -31.359375 C 32.984375 -30.648438 33.234375 -29.863281 33.234375 -29 C 33.234375 -27.90625 32.992188 -26.972656 32.515625 -26.203125 C 32.035156 -25.441406 31.441406 -24.835938 30.734375 -24.390625 C 29.515625 -25.503906 28.085938 -26.414062 26.453125 -27.125 C 24.816406 -27.832031 23.019531 -28.1875 21.0625 -28.1875 C 18.789062 -28.1875 16.859375 -27.71875 15.265625 -26.78125 C 13.679688 -25.851562 12.488281 -24.554688 11.6875 -22.890625 C 10.882812 -21.222656 10.484375 -19.332031 10.484375 -17.21875 C 10.484375 -15.132812 10.84375 -13.28125 11.5625 -11.65625 C 12.289062 -10.039062 13.359375 -8.765625 14.765625 -7.828125 C 16.171875 -6.898438 17.882812 -6.4375 19.90625 -6.4375 C 21.320312 -6.4375 22.601562 -6.703125 23.75 -7.234375 C 24.90625 -7.765625 25.867188 -8.550781 26.640625 -9.59375 C 27.410156 -10.632812 27.875 -11.878906 28.03125 -13.328125 L 19.234375 -13.328125 C 18.941406 -14.472656 18.796875 -15.5625 18.796875 -16.59375 C 18.796875 -18.863281 19.953125 -20 22.265625 -20 Z M 30.59375 -20 "/></g></g></g><g fill="#57cba9" fill-opacity="1"><g transform="translate(178.503911, 234.627073)"><g><path d="M 34.1875 -0.484375 C 33.519531 -0.160156 32.640625 0.09375 31.546875 0.28125 C 30.460938 0.476562 29.4375 0.578125 28.46875 0.578125 C 27.570312 0.578125 26.832031 0.472656 26.25 0.265625 C 25.675781 0.0546875 25.15625 -0.300781 24.6875 -0.8125 C 24.226562 -1.332031 23.726562 -2.085938 23.1875 -3.078125 L 18.5625 -11.390625 L 12.21875 -11.390625 L 12.21875 0.140625 C 11.957031 0.203125 11.472656 0.265625 10.765625 0.328125 C 10.066406 0.398438 9.460938 0.4375 8.953125 0.4375 C 7.503906 0.4375 6.453125 0.332031 5.796875 0.125 C 5.140625 -0.0820312 4.691406 -0.441406 4.453125 -0.953125 C 4.210938 -1.472656 4.09375 -2.296875 4.09375 -3.421875 L 4.09375 -28.09375 L 0.671875 -28.09375 C 0.609375 -28.46875 0.5625 -28.90625 0.53125 -29.40625 C 0.5 -29.90625 0.484375 -30.378906 0.484375 -30.828125 C 0.484375 -31.816406 0.601562 -32.582031 0.84375 -33.125 C 1.082031 -33.675781 1.46875 -34.0625 2 -34.28125 C 2.53125 -34.507812 3.273438 -34.625 4.234375 -34.625 L 17.265625 -34.625 C 22.523438 -34.625 26.378906 -33.644531 28.828125 -31.6875 C 31.285156 -29.738281 32.515625 -26.789062 32.515625 -22.84375 C 32.515625 -20.46875 31.957031 -18.453125 30.84375 -16.796875 C 29.738281 -15.148438 28.210938 -13.992188 26.265625 -13.328125 Z M 12.21875 -18.171875 L 17.453125 -18.171875 C 19.703125 -18.171875 21.363281 -18.546875 22.4375 -19.296875 C 23.507812 -20.054688 24.046875 -21.269531 24.046875 -22.9375 C 24.046875 -24.664062 23.507812 -25.929688 22.4375 -26.734375 C 21.363281 -27.535156 19.703125 -27.9375 17.453125 -27.9375 L 12.21875 -27.9375 Z M 12.21875 -18.171875 "/></g></g></g><g fill="#57cba9" fill-opacity="1"><g transform="translate(214.032123, 234.627073)"><g><path d="M 37.890625 -17.3125 C 37.890625 -13.789062 37.128906 -10.65625 35.609375 -7.90625 C 34.085938 -5.164062 31.960938 -3.035156 29.234375 -1.515625 C 26.515625 0.00390625 23.390625 0.765625 19.859375 0.765625 C 16.203125 0.765625 13.019531 0.0195312 10.3125 -1.46875 C 7.601562 -2.957031 5.507812 -5.0625 4.03125 -7.78125 C 2.5625 -10.507812 1.828125 -13.6875 1.828125 -17.3125 C 1.828125 -20.84375 2.578125 -23.976562 4.078125 -26.71875 C 5.585938 -29.457031 7.707031 -31.585938 10.4375 -33.109375 C 13.164062 -34.628906 16.289062 -35.390625 19.8125 -35.390625 C 23.46875 -35.390625 26.65625 -34.644531 29.375 -33.15625 C 32.101562 -31.664062 34.203125 -29.554688 35.671875 -26.828125 C 37.148438 -24.109375 37.890625 -20.9375 37.890625 -17.3125 Z M 28.65625 -17.3125 C 28.65625 -19.363281 28.300781 -21.179688 27.59375 -22.765625 C 26.894531 -24.359375 25.878906 -25.601562 24.546875 -26.5 C 23.222656 -27.394531 21.644531 -27.84375 19.8125 -27.84375 C 17.957031 -27.84375 16.363281 -27.394531 15.03125 -26.5 C 13.695312 -25.601562 12.691406 -24.359375 12.015625 -22.765625 C 11.347656 -21.179688 11.015625 -19.363281 11.015625 -17.3125 C 11.015625 -15.257812 11.363281 -13.4375 12.0625 -11.84375 C 12.769531 -10.257812 13.789062 -9.019531 15.125 -8.125 C 16.457031 -7.226562 18.035156 -6.78125 19.859375 -6.78125 C 21.722656 -6.78125 23.316406 -7.226562 24.640625 -8.125 C 25.972656 -9.019531 26.972656 -10.257812 27.640625 -11.84375 C 28.316406 -13.4375 28.65625 -15.257812 28.65625 -17.3125 Z M 28.65625 -17.3125 "/></g></g></g><g fill="#57cba9" fill-opacity="1"><g transform="translate(253.742958, 234.627073)"><g><path d="M 25.0625 -34.875 C 25.476562 -34.9375 26 -34.988281 26.625 -35.03125 C 27.25 -35.082031 27.847656 -35.109375 28.421875 -35.109375 C 29.960938 -35.109375 31.097656 -35.003906 31.828125 -34.796875 C 32.566406 -34.585938 33.082031 -34.222656 33.375 -33.703125 C 33.664062 -33.191406 33.8125 -32.394531 33.8125 -31.3125 L 33.8125 -14.859375 C 33.8125 -4.441406 28.664062 0.765625 18.375 0.765625 C 13.300781 0.765625 9.472656 -0.515625 6.890625 -3.078125 C 4.316406 -5.640625 3.03125 -9.550781 3.03125 -14.8125 L 3.03125 -34.8125 C 3.320312 -34.882812 3.84375 -34.953125 4.59375 -35.015625 C 5.34375 -35.078125 6.007812 -35.109375 6.59375 -35.109375 C 8.09375 -35.109375 9.203125 -35.003906 9.921875 -34.796875 C 10.648438 -34.585938 11.140625 -34.222656 11.390625 -33.703125 C 11.648438 -33.191406 11.78125 -32.378906 11.78125 -31.265625 L 11.78125 -15.34375 C 11.78125 -12.425781 12.320312 -10.269531 13.40625 -8.875 C 14.5 -7.476562 16.171875 -6.78125 18.421875 -6.78125 C 20.691406 -6.78125 22.363281 -7.46875 23.4375 -8.84375 C 24.519531 -10.226562 25.0625 -12.394531 25.0625 -15.34375 Z M 25.0625 -34.875 "/></g></g></g><g fill="#57cba9" fill-opacity="1"><g transform="translate(290.569242, 234.627073)"><g><path d="M 30.109375 -35.203125 C 31.453125 -35.203125 32.4375 -35.097656 33.0625 -34.890625 C 33.6875 -34.679688 34.117188 -34.320312 34.359375 -33.8125 C 34.597656 -33.300781 34.71875 -32.5 34.71875 -31.40625 L 34.71875 -4.515625 C 34.71875 -2.722656 34.132812 -1.425781 32.96875 -0.625 C 31.800781 0.175781 30.332031 0.578125 28.5625 0.578125 C 27.3125 0.578125 26.09375 0.460938 24.90625 0.234375 C 22.988281 -3.191406 20.78125 -6.957031 18.28125 -11.0625 C 15.78125 -15.164062 13.46875 -18.769531 11.34375 -21.875 L 11.34375 0.28125 C 11 0.382812 10.566406 0.457031 10.046875 0.5 C 9.535156 0.550781 9.007812 0.578125 8.46875 0.578125 C 6.957031 0.578125 5.84375 0.472656 5.125 0.265625 C 4.40625 0.0546875 3.914062 -0.300781 3.65625 -0.8125 C 3.394531 -1.332031 3.265625 -2.132812 3.265625 -3.21875 L 3.265625 -31.640625 L 1.734375 -34.875 C 2.179688 -35 2.828125 -35.109375 3.671875 -35.203125 C 4.523438 -35.296875 5.382812 -35.34375 6.25 -35.34375 C 7.53125 -35.34375 8.554688 -35.253906 9.328125 -35.078125 C 10.097656 -34.898438 10.796875 -34.546875 11.421875 -34.015625 C 12.046875 -33.492188 12.726562 -32.703125 13.46875 -31.640625 C 15.289062 -29.109375 17.390625 -25.972656 19.765625 -22.234375 C 22.140625 -18.503906 24.429688 -14.796875 26.640625 -11.109375 L 26.640625 -34.96875 C 27.609375 -35.125 28.765625 -35.203125 30.109375 -35.203125 Z M 30.109375 -35.203125 "/></g></g></g><g fill="#57cba9" fill-opacity="1"><g transform="translate(328.54935, 234.627073)"><g><path d="M 16.203125 -34.625 C 22.648438 -34.625 27.484375 -33.140625 30.703125 -30.171875 C 33.929688 -27.210938 35.546875 -22.925781 35.546875 -17.3125 C 35.546875 -13.851562 34.835938 -10.820312 33.421875 -8.21875 C 32.015625 -5.625 29.84375 -3.601562 26.90625 -2.15625 C 23.976562 -0.71875 20.332031 0 15.96875 0 L 9.671875 0 C 8.128906 0 6.960938 -0.148438 6.171875 -0.453125 C 5.390625 -0.753906 4.847656 -1.273438 4.546875 -2.015625 C 4.242188 -2.753906 4.09375 -3.847656 4.09375 -5.296875 L 4.09375 -27.84375 L 0.671875 -27.84375 C 0.546875 -28.675781 0.484375 -29.671875 0.484375 -30.828125 C 0.484375 -31.816406 0.601562 -32.582031 0.84375 -33.125 C 1.082031 -33.675781 1.46875 -34.0625 2 -34.28125 C 2.53125 -34.507812 3.273438 -34.625 4.234375 -34.625 Z M 15.671875 -7.015625 C 19.523438 -7.015625 22.316406 -7.894531 24.046875 -9.65625 C 25.773438 -11.425781 26.640625 -13.976562 26.640625 -17.3125 C 26.640625 -20.738281 25.757812 -23.316406 24 -25.046875 C 22.238281 -26.785156 19.429688 -27.65625 15.578125 -27.65625 L 12.453125 -27.65625 L 12.453125 -7.015625 Z M 15.671875 -7.015625 "/></g></g></g></svg>