<svg version="1.0" preserveAspectRatio="xMidYMid meet" viewBox="114.375 117.749997174 144 171.74999587800002" zoomAndPan="magnify" xmlns:xlink="http://www.w3.org/1999/xlink" xmlns="http://www.w3.org/2000/svg" style="max-height: 500px" width="144" height="171.74999587800002"><defs><clipPath id="c841051946"><path clip-rule="nonzero" d="M 132 186 L 238 186 L 238 234.4375 L 132 234.4375 Z M 132 186"/></clipPath><clipPath id="096d20ca40"><path clip-rule="nonzero" d="M 189 140.636719 L 199 140.636719 L 199 176 L 189 176 Z M 189 140.636719"/></clipPath><clipPath id="6a2303560c"><path clip-rule="nonzero" d="M 84.21875 226 L 119 226 L 119 233 L 84.21875 233 Z M 84.21875 226"/></clipPath><clipPath id="763aa046a0"><path clip-rule="nonzero" d="M 174 191.335938 L 178 191.335938 L 178 204 L 174 204 Z M 174 191.335938"/></clipPath><clipPath id="af09f4ed9e"><path clip-rule="nonzero" d="M 193 191.335938 L 198 191.335938 L 198 203 L 193 203 Z M 193 191.335938"/></clipPath><clipPath id="5b24cb7587"><path clip-rule="nonzero" d="M 160.359375 202 L 214.476562 202 L 214.476562 234.628906 L 160.359375 234.628906 Z M 160.359375 202"/></clipPath></defs><g clip-path="url(#c841051946)"><path fill-rule="nonzero" fill-opacity="1" d="M 223.707031 206.308594 C 219.605469 201.089844 214.941406 196.21875 209.332031 192.667969 C 197.253906 185.011719 181.4375 184.253906 168.105469 189.421875 C 154.773438 194.59375 143.941406 205.265625 137.230469 217.894531 C 134.550781 222.941406 132.46875 228.679688 132.902344 234.269531 L 237.511719 234.269531 C 235.417969 224.101562 230.171875 214.546875 223.707031 206.308594 Z M 223.707031 206.308594" fill="#e6d1a2"/></g><path fill-rule="nonzero" fill-opacity="1" d="M 231.613281 147.449219 C 229.792969 147.324219 228.78125 147.808594 228.230469 149.023438 C 228.011719 149.4375 227.929688 149.875 227.847656 150.3125 C 226.3125 154.894531 224.820312 159.769531 222.4375 166.226562 C 221.765625 168.425781 220.765625 171.789062 219.429688 175.71875 C 219.074219 176.796875 218.789062 177.898438 218.5625 179.035156 C 218.375 180.066406 218.625 181.375 219.710938 181.855469 C 220.878906 182.308594 221.710938 180.726562 222.351562 179.875 C 223.515625 178.230469 226.898438 171.914062 228.910156 167.410156 C 230.414062 164.125 231.675781 160.726562 232.664062 157.179688 C 233.273438 154.863281 234.210938 152.546875 234.296875 149.945312 C 234.328125 148.460938 233.199219 147.605469 231.613281 147.449219 Z M 231.613281 147.449219" fill="#83adf1"/><g clip-path="url(#096d20ca40)"><path fill-rule="nonzero" fill-opacity="1" d="M 194.730469 140.746094 C 192.921875 140.839844 191.96875 141.492188 191.675781 142.855469 C 191.550781 143.308594 191.558594 143.761719 191.574219 144.210938 C 191.183594 148.976562 191.253906 153.769531 190.644531 160.199219 C 190.582031 162.351562 190.472656 165.632812 190.035156 169.488281 C 189.9375 170.539062 189.875 171.601562 189.886719 172.679688 C 189.910156 173.65625 190.394531 174.824219 191.542969 175.121094 C 192.769531 175.378906 193.3125 173.746094 193.761719 172.824219 C 194.164062 171.941406 194.878906 169.851562 195.535156 167.382812 C 196.203125 164.914062 196.816406 162.0625 197.195312 159.730469 C 197.777344 156.308594 198.03125 152.835938 198.015625 149.371094 C 197.972656 147.113281 198.226562 144.792969 197.804688 142.542969 C 197.546875 141.289062 196.335938 140.71875 194.730469 140.746094 Z M 194.730469 140.746094" fill="#e6d1a2"/></g><path fill-rule="nonzero" fill-opacity="1" d="M 147.640625 145.355469 C 146.980469 145.976562 146.582031 146.582031 146.394531 147.167969 C 146.210938 147.753906 146.246094 148.285156 146.527344 148.996094 C 146.691406 149.46875 146.972656 149.835938 147.246094 150.265625 C 148.542969 152.601562 149.847656 154.949219 151.265625 157.503906 C 152.714844 160.082031 154.308594 162.875 156.042969 166.136719 C 157.320312 168.25 159.300781 171.441406 161.441406 175.292969 C 162.027344 176.335938 162.6875 177.359375 163.371094 178.339844 C 164.027344 179.222656 165.113281 179.984375 166.238281 179.585938 C 167.402344 179.105469 166.792969 177.234375 166.566406 176.117188 C 166.113281 173.980469 163.386719 166.785156 161.1875 162.011719 C 159.613281 158.496094 157.808594 155.089844 155.761719 151.777344 C 154.414062 149.632812 153.28125 147.273438 151.402344 145.269531 C 150.902344 144.726562 150.191406 144.445312 149.539062 144.480469 C 148.878906 144.503906 148.246094 144.828125 147.640625 145.355469 Z M 147.640625 145.355469" fill="#57cba9"/><path fill-rule="nonzero" fill-opacity="1" d="M 110.003906 171.847656 C 109.121094 173.433594 109.25 174.628906 110.433594 175.699219 C 110.816406 176.078125 111.261719 176.335938 111.710938 176.597656 C 116.191406 179.785156 120.957031 182.582031 127.023438 186.878906 C 129.125 188.195312 132.324219 190.203125 135.941406 192.800781 C 136.941406 193.496094 137.964844 194.15625 139.042969 194.761719 C 140.023438 195.304688 141.398438 195.527344 142.207031 194.660156 C 143.015625 193.703125 141.648438 192.296875 140.957031 191.375 C 139.621094 189.628906 133.96875 184.203125 129.757812 180.875 C 126.707031 178.398438 123.460938 176.164062 120.089844 174.152344 C 117.882812 172.863281 115.773438 171.285156 113.375 170.3125 C 112.03125 169.792969 110.832031 170.476562 110.003906 171.847656 Z M 110.003906 171.847656" fill="#ffa087"/><path fill-rule="nonzero" fill-opacity="1" d="M 85.960938 200.234375 C 85.660156 202.03125 86.152344 203.09375 87.699219 203.792969 C 88.207031 204.046875 88.75 204.164062 89.300781 204.289062 C 94.941406 206.070312 100.816406 207.359375 108.671875 209.253906 C 111.332031 209.734375 115.375 210.472656 120.136719 211.339844 C 121.441406 211.574219 122.757812 211.734375 124.113281 211.8125 C 125.332031 211.871094 126.804688 211.429688 127.0625 210.273438 C 127.277344 209.042969 125.332031 208.449219 124.234375 207.914062 C 122.121094 206.972656 114.308594 204.304688 108.914062 202.640625 C 104.960938 201.402344 100.957031 200.363281 96.90625 199.472656 C 94.261719 198.917969 91.632812 198.015625 88.871094 197.773438 C 87.324219 197.640625 86.28125 198.667969 85.960938 200.234375 Z M 85.960938 200.234375" fill="#83adf1"/><g clip-path="url(#6a2303560c)"><path fill-rule="nonzero" fill-opacity="1" d="M 84.21875 229.699219 C 84.292969 231.511719 84.9375 232.460938 86.316406 232.753906 C 86.78125 232.875 87.234375 232.859375 87.6875 232.839844 C 92.507812 233.128906 97.351562 232.789062 103.867188 232.523438 C 106.035156 232.296875 109.320312 231.894531 113.203125 231.523438 C 114.261719 231.414062 115.316406 231.226562 116.371094 230.976562 C 117.320312 230.722656 118.335938 229.976562 118.339844 228.792969 C 118.289062 227.535156 116.609375 227.410156 115.640625 227.167969 C 113.78125 226.769531 107.105469 226.253906 102.542969 226.089844 C 99.195312 225.949219 95.859375 226.015625 92.527344 226.222656 C 90.359375 226.378906 88.125 226.195312 85.964844 226.632812 C 84.761719 226.886719 84.203125 228.097656 84.21875 229.699219 Z M 84.21875 229.699219" fill="#e6d1a2"/></g><path fill-rule="nonzero" fill-opacity="1" d="M 264.667969 172.210938 C 264.066406 170.511719 263.050781 169.839844 261.386719 170.164062 C 260.839844 170.261719 260.347656 170.492188 259.859375 170.71875 C 254.578125 172.78125 249.972656 175.863281 243.898438 179.941406 C 241.980469 181.433594 239.066406 183.695312 235.636719 186.363281 C 234.707031 187.085938 233.820312 187.863281 232.96875 188.6875 C 232.210938 189.453125 231.644531 190.667969 232.242188 191.695312 C 232.917969 192.746094 234.601562 191.882812 235.644531 191.507812 C 237.628906 190.761719 244.148438 187.15625 248.503906 184.667969 C 251.710938 182.859375 254.8125 180.933594 257.878906 179.0625 C 259.875 177.835938 262.078125 176.9375 263.960938 175.734375 C 264.992188 175.082031 265.152344 173.75 264.667969 172.210938 Z M 264.667969 172.210938" fill="#57cba9"/><path fill-rule="nonzero" fill-opacity="1" d="M 288.886719 203.148438 C 288.765625 201.671875 287.730469 200.941406 285.664062 200.964844 C 284.980469 200.953125 284.304688 201.050781 283.640625 201.167969 C 276.582031 201.960938 269.65625 203.503906 260.335938 205.558594 C 257.257812 206.375 252.59375 207.648438 247.09375 209.21875 C 245.59375 209.667969 244.117188 210.160156 242.644531 210.773438 C 241.320312 211.308594 239.980469 212.386719 240.242188 213.316406 C 240.589844 214.285156 242.902344 213.722656 244.3125 213.585938 C 246.960938 213.214844 256.488281 211.570312 263.003906 210.453125 C 267.78125 209.636719 272.535156 208.695312 277.261719 207.714844 C 280.339844 207.054688 283.546875 206.699219 286.550781 205.953125 C 288.222656 205.523438 288.917969 204.492188 288.886719 203.148438 Z M 288.886719 203.148438" fill="#ffa087"/><path fill-rule="nonzero" fill-opacity="1" d="M 290.679688 230.351562 C 290.75 228.746094 290.039062 227.84375 288.375 227.457031 C 287.820312 227.308594 287.257812 227.277344 286.703125 227.246094 C 280.820312 226.5 274.855469 226.238281 266.859375 225.496094 C 264.183594 225.371094 260.113281 225.207031 255.332031 224.832031 C 254.027344 224.746094 252.714844 224.703125 251.390625 224.726562 C 250.191406 224.761719 248.828125 225.21875 248.628906 226.257812 C 248.484375 227.359375 250.515625 227.804688 251.671875 228.191406 C 253.882812 228.910156 262.023438 230.550781 267.644531 231.347656 C 271.761719 231.96875 275.902344 232.355469 280.058594 232.5625 C 282.761719 232.671875 285.519531 233.078125 288.238281 232.898438 C 289.753906 232.789062 290.554688 231.773438 290.679688 230.351562 Z M 290.679688 230.351562" fill="#e6d1a2"/><g clip-path="url(#763aa046a0)"><path fill-rule="nonzero" fill-opacity="1" d="M 174.28125 193.296875 C 174.027344 194.683594 174.191406 196.238281 174.210938 197.660156 C 174.226562 199.160156 174.28125 200.621094 174.410156 202.097656 C 174.539062 203.523438 176.9375 203.726562 177.230469 202.300781 C 177.582031 200.691406 177.746094 199.195312 177.707031 197.566406 C 177.652344 195.976562 177.597656 194.257812 176.992188 192.777344 C 176.753906 192.203125 176.023438 191.890625 175.453125 192 C 174.777344 192.128906 174.410156 192.667969 174.28125 193.296875 Z M 174.28125 193.296875" fill="#000000"/></g><g clip-path="url(#af09f4ed9e)"><path fill-rule="nonzero" fill-opacity="1" d="M 194.199219 192.816406 C 193.648438 193.925781 193.867188 195.570312 193.921875 196.792969 C 193.980469 198.214844 194.144531 199.527344 194.511719 200.898438 C 195.003906 202.765625 197.351562 202.488281 197.714844 200.710938 C 198.027344 199.230469 198.046875 197.882812 197.882812 196.382812 C 197.734375 195.035156 197.605469 193.425781 196.746094 192.316406 C 195.976562 191.335938 194.65625 191.871094 194.199219 192.816406 Z M 194.199219 192.816406" fill="#000000"/></g><g clip-path="url(#5b24cb7587)"><path fill-rule="nonzero" fill-opacity="1" d="M 160.46875 216.285156 C 160.414062 219.074219 161.804688 221.703125 163.34375 223.941406 C 164.863281 226.140625 166.808594 228.0625 168.988281 229.597656 C 173.144531 232.519531 178.238281 234.183594 183.296875 234.40625 C 188.425781 234.628906 193.683594 233.554688 198.191406 231.042969 C 202.683594 228.542969 206.472656 224.863281 209.242188 220.5 C 210.761719 218.097656 211.988281 215.46875 212.851562 212.75 C 213.308594 211.34375 213.675781 209.882812 213.914062 208.421875 C 214.132812 206.980469 214.425781 205.335938 213.96875 203.929688 C 213.527344 202.597656 211.917969 202.414062 211.292969 203.726562 C 210.796875 204.78125 210.742188 205.945312 210.503906 207.09375 C 210.265625 208.21875 210.011719 209.347656 209.679688 210.457031 C 209.058594 212.585938 208.214844 214.65625 207.132812 216.578125 C 204.953125 220.480469 201.949219 223.976562 198.210938 226.453125 C 190.808594 231.335938 180.804688 232.003906 172.890625 227.898438 C 170.582031 226.695312 168.4375 225.085938 166.679688 223.179688 C 164.679688 221.019531 163.546875 218.503906 162.171875 215.933594 C 161.769531 215.210938 160.484375 215.339844 160.46875 216.285156 Z M 160.46875 216.285156" fill="#000000"/></g></svg>